<?xml version="1.0" encoding="UTF-8"?>
<svg id="_レイヤー_1" data-name="レイヤー 1" xmlns="http://www.w3.org/2000/svg" viewBox="0 0 381.15 85.72">
  <defs>
    <style>
      .cls-1 {
        fill: #e74c3c;
      }
    </style>
  </defs>
  <path class="cls-1" d="M30.94,56.53c1.44,0,2.74-.13,3.89-.38,1.15-.25,2.26-.61,3.31-1.06l1.01-8.57h-4.46c-.67,0-1.19-.16-1.55-.47-.36-.31-.54-.73-.54-1.26l.79-6.77h17.5l-2.74,21.92c-1.34.98-2.74,1.83-4.18,2.54-1.44.71-2.95,1.29-4.52,1.75-1.57.46-3.23.79-4.97,1.01-1.74.22-3.59.32-5.56.32-3.24,0-6.2-.59-8.87-1.78-2.68-1.19-4.97-2.83-6.88-4.91-1.91-2.09-3.38-4.56-4.43-7.42-1.04-2.86-1.57-5.95-1.57-9.29,0-2.9.33-5.67.99-8.3.66-2.63,1.6-5.06,2.83-7.29,1.22-2.23,2.69-4.25,4.41-6.05,1.72-1.8,3.62-3.34,5.72-4.61,2.1-1.27,4.36-2.25,6.79-2.93,2.42-.68,4.97-1.03,7.63-1.03,2.23,0,4.25.2,6.07.61,1.81.41,3.44.95,4.88,1.64,1.44.68,2.72,1.48,3.85,2.38,1.13.9,2.12,1.83,2.99,2.79l-3.82,4.72c-.86,1.06-1.84,1.58-2.92,1.58-.65,0-1.31-.22-1.98-.65-.86-.55-1.67-1.04-2.41-1.46-.74-.42-1.49-.77-2.25-1.04-.76-.28-1.56-.49-2.41-.63-.85-.14-1.81-.22-2.86-.22-2.28,0-4.37.49-6.26,1.46-1.9.97-3.53,2.34-4.9,4.1-1.37,1.76-2.43,3.88-3.19,6.35-.76,2.47-1.13,5.2-1.13,8.17,0,2.3.28,4.37.85,6.21.56,1.84,1.36,3.38,2.39,4.64,1.03,1.26,2.27,2.23,3.71,2.9s3.04,1.01,4.79,1.01Z"/>
  <path class="cls-1" d="M84.69,64.99h-5.98c-.7,0-1.28-.09-1.75-.27-.47-.18-.84-.43-1.12-.74-.28-.31-.47-.68-.58-1.12s-.16-.9-.16-1.4v-2.66c-1.54,2.11-3.24,3.77-5.11,4.97-1.87,1.2-3.94,1.8-6.19,1.8-1.34,0-2.64-.27-3.89-.81-1.25-.54-2.35-1.36-3.31-2.45-.96-1.09-1.73-2.48-2.3-4.18-.58-1.69-.86-3.69-.86-5.99,0-3.38.62-6.59,1.85-9.63,1.24-3.04,2.96-5.69,5.18-7.97,2.22-2.28,4.85-4.09,7.9-5.44,3.05-1.34,6.4-2.02,10.04-2.02,1.78,0,3.58.12,5.4.36,1.82.24,3.62.67,5.4,1.3l-4.54,36.25ZM68.27,56.74c.82,0,1.61-.31,2.38-.92.77-.61,1.49-1.45,2.18-2.5.68-1.06,1.31-2.29,1.89-3.71.58-1.42,1.07-2.93,1.48-4.54l1.3-10.33h-.65c-1.82,0-3.49.41-4.99,1.22-1.5.82-2.79,1.93-3.87,3.33s-1.91,3.04-2.5,4.9c-.59,1.86-.88,3.85-.88,5.96,0,1.2.1,2.22.29,3.06.19.84.45,1.52.77,2.03.32.52.71.89,1.15,1.13.44.24.93.36,1.46.36Z"/>
  <path class="cls-1" d="M90.3,76.83l5.98-49.18h5.76c1.15,0,2.05.27,2.7.81s.97,1.42.97,2.65v3.38c1.7-2.3,3.6-4.12,5.69-5.44,2.09-1.32,4.32-1.98,6.7-1.98,1.54,0,2.94.27,4.21.81,1.27.54,2.37,1.39,3.29,2.54.92,1.15,1.64,2.62,2.16,4.41.52,1.79.77,3.92.77,6.39,0,3.26-.5,6.37-1.49,9.31-1,2.94-2.33,5.53-4.01,7.76-1.68,2.23-3.62,4-5.81,5.31-2.2,1.31-4.49,1.96-6.89,1.96-1.56,0-2.95-.25-4.18-.76-1.22-.5-2.3-1.18-3.24-2.02l-1.73,14.04h-10.87ZM113.63,35.54c-.77,0-1.57.29-2.41.88-.84.59-1.65,1.39-2.43,2.41-.78,1.02-1.51,2.21-2.2,3.58-.68,1.37-1.25,2.83-1.71,4.39l-1.12,9c.7.55,1.47.95,2.32,1.19.85.24,1.66.36,2.43.36,1.3,0,2.49-.43,3.58-1.3,1.09-.86,2.03-2,2.83-3.4.79-1.4,1.41-3.01,1.85-4.81.44-1.8.67-3.64.67-5.51,0-2.38-.35-4.1-1.04-5.18-.7-1.08-1.62-1.62-2.77-1.62Z"/>
  <path class="cls-1" d="M158.99,45.4l-2.41,19.58h-11.66l6.41-52.45h15.91c3.22,0,5.96.34,8.23,1.03,2.27.68,4.12,1.63,5.56,2.83,1.44,1.2,2.49,2.62,3.15,4.27.66,1.64.99,3.43.99,5.35s-.26,3.78-.77,5.51c-.52,1.73-1.27,3.32-2.25,4.77-.98,1.45-2.19,2.74-3.62,3.85-1.43,1.12-3.05,2.03-4.88,2.75.72.41,1.4.9,2.03,1.48.64.58,1.13,1.3,1.49,2.16l7.63,18.47h-10.58c-.98,0-1.81-.19-2.48-.58-.67-.38-1.14-.94-1.4-1.66l-5.69-15.52c-.26-.67-.62-1.15-1.06-1.42-.44-.28-1.1-.41-1.96-.41h-2.63ZM161.97,21.28l-1.98,16.02h4.28c1.68,0,3.11-.26,4.28-.77,1.18-.52,2.13-1.21,2.86-2.07.73-.86,1.26-1.87,1.58-3.02.32-1.15.49-2.36.49-3.64,0-.98-.14-1.88-.43-2.68-.29-.8-.74-1.49-1.35-2.05-.61-.56-1.38-1-2.3-1.31-.92-.31-2.01-.47-3.26-.47h-4.18Z"/>
  <path class="cls-1" d="M221.77,36.83c0,1.7-.34,3.26-1.01,4.68-.67,1.42-1.84,2.67-3.51,3.76-1.67,1.09-3.91,2.02-6.73,2.79-2.82.77-6.37,1.37-10.64,1.8.05,2.54.61,4.4,1.67,5.58,1.07,1.18,2.65,1.76,4.73,1.76.98,0,1.84-.08,2.56-.25s1.35-.38,1.89-.65,1.03-.54,1.46-.83c.43-.29.85-.56,1.24-.83.4-.26.81-.48,1.24-.65.43-.17.92-.25,1.48-.25.36,0,.71.09,1.04.27.34.18.64.41.9.7l2.88,3.35c-1.32,1.3-2.61,2.42-3.87,3.37-1.26.95-2.56,1.73-3.89,2.34s-2.75,1.06-4.25,1.35c-1.5.29-3.14.43-4.91.43-2.21,0-4.24-.38-6.08-1.13-1.85-.76-3.44-1.82-4.77-3.2-1.33-1.38-2.36-3.04-3.1-4.99-.73-1.94-1.1-4.1-1.1-6.48,0-1.99.22-3.94.67-5.83.44-1.9,1.08-3.68,1.91-5.35.83-1.67,1.84-3.2,3.04-4.61,1.2-1.4,2.55-2.61,4.05-3.62,1.5-1.01,3.14-1.79,4.93-2.36,1.79-.56,3.69-.85,5.71-.85s3.76.29,5.31.86c1.55.58,2.85,1.33,3.91,2.25,1.06.92,1.86,1.96,2.41,3.11.55,1.15.83,2.3.83,3.46ZM208.67,34.67c-1.85,0-3.47.74-4.86,2.21-1.39,1.48-2.44,3.5-3.13,6.07,2.33-.36,4.21-.74,5.65-1.13s2.56-.83,3.35-1.3c.79-.47,1.33-.97,1.6-1.51.28-.54.41-1.12.41-1.75s-.24-1.21-.72-1.76c-.48-.55-1.25-.83-2.3-.83Z"/>
  <path class="cls-1" d="M239.81,35.36l-3.35,27.83-1.94,6.26c-.43,1.39-1.09,2.47-1.98,3.24-.89.77-2.15,1.15-3.78,1.15h-4.54l4.64-38.52-2.2-.5c-.62-.14-1.15-.4-1.57-.77s-.63-.88-.63-1.53c0-.17.01-.3.04-.4l.58-4.39h4.72l.25-2.12c.26-2.14.85-4.07,1.76-5.8.91-1.73,2.08-3.2,3.49-4.43s3.05-2.17,4.91-2.84c1.86-.67,3.87-1.01,6.03-1.01.84,0,1.61.05,2.32.16.71.11,1.42.28,2.14.52l-1.01,5.62c-.12.62-.46,1.03-1.01,1.22-.55.19-1.1.29-1.66.29-1.85,0-3.32.49-4.41,1.48-1.09.98-1.78,2.7-2.07,5.15l-.22,1.76h7.56l-1.01,7.63h-7.09Z"/>
  <path class="cls-1" d="M280.52,36.83c0,1.7-.34,3.26-1.01,4.68-.67,1.42-1.84,2.67-3.51,3.76-1.67,1.09-3.91,2.02-6.73,2.79-2.82.77-6.37,1.37-10.64,1.8.05,2.54.61,4.4,1.67,5.58,1.07,1.18,2.65,1.76,4.73,1.76.98,0,1.84-.08,2.56-.25.72-.17,1.35-.38,1.89-.65.54-.26,1.03-.54,1.46-.83.43-.29.85-.56,1.24-.83.39-.26.81-.48,1.24-.65.43-.17.92-.25,1.48-.25.36,0,.71.09,1.04.27.34.18.63.41.9.7l2.88,3.35c-1.32,1.3-2.61,2.42-3.87,3.37-1.26.95-2.56,1.73-3.89,2.34s-2.75,1.06-4.25,1.35-3.14.43-4.91.43c-2.21,0-4.24-.38-6.08-1.13-1.85-.76-3.44-1.82-4.77-3.2-1.33-1.38-2.36-3.04-3.1-4.99-.73-1.94-1.1-4.1-1.1-6.48,0-1.99.22-3.94.67-5.83.44-1.9,1.08-3.68,1.91-5.35.83-1.67,1.84-3.2,3.04-4.61,1.2-1.4,2.55-2.61,4.05-3.62,1.5-1.01,3.14-1.79,4.93-2.36,1.79-.56,3.69-.85,5.71-.85s3.76.29,5.31.86c1.55.58,2.85,1.33,3.91,2.25,1.05.92,1.86,1.96,2.41,3.11.55,1.15.83,2.3.83,3.46ZM267.42,34.67c-1.85,0-3.47.74-4.86,2.21-1.39,1.48-2.44,3.5-3.13,6.07,2.33-.36,4.21-.74,5.65-1.13,1.44-.4,2.56-.83,3.35-1.3.79-.47,1.33-.97,1.6-1.51.28-.54.41-1.12.41-1.75s-.24-1.21-.72-1.76c-.48-.55-1.25-.83-2.3-.83Z"/>
  <path class="cls-1" d="M282.39,64.99l4.54-37.33h5.76c1.15,0,2.05.27,2.7.81.65.54.97,1.42.97,2.65v4.25c1.44-2.54,3-4.5,4.68-5.87,1.68-1.37,3.42-2.05,5.22-2.05,1.01,0,2,.23,2.99.68l-2.02,10.33c-1.22-.53-2.39-.79-3.49-.79-1.85,0-3.49.83-4.91,2.5-1.43,1.67-2.59,4.35-3.47,8.05l-2.02,16.78h-10.94Z"/>
  <path class="cls-1" d="M340.93,36.83c0,1.7-.34,3.26-1.01,4.68-.67,1.42-1.84,2.67-3.51,3.76-1.67,1.09-3.91,2.02-6.73,2.79-2.82.77-6.37,1.37-10.64,1.8.05,2.54.61,4.4,1.67,5.58,1.07,1.18,2.65,1.76,4.73,1.76.98,0,1.84-.08,2.56-.25.72-.17,1.35-.38,1.89-.65s1.03-.54,1.46-.83c.43-.29.85-.56,1.24-.83.4-.26.81-.48,1.24-.65.43-.17.92-.25,1.48-.25.36,0,.71.09,1.04.27.34.18.64.41.9.7l2.88,3.35c-1.32,1.3-2.61,2.42-3.87,3.37-1.26.95-2.56,1.73-3.89,2.34s-2.75,1.06-4.25,1.35c-1.5.29-3.14.43-4.91.43-2.21,0-4.24-.38-6.08-1.13-1.85-.76-3.44-1.82-4.77-3.2-1.33-1.38-2.36-3.04-3.1-4.99-.73-1.94-1.1-4.1-1.1-6.48,0-1.99.22-3.94.67-5.83.44-1.9,1.08-3.68,1.91-5.35s1.84-3.2,3.04-4.61c1.2-1.4,2.55-2.61,4.05-3.62,1.5-1.01,3.14-1.79,4.93-2.36,1.79-.56,3.69-.85,5.71-.85s3.76.29,5.31.86c1.55.58,2.85,1.33,3.91,2.25,1.06.92,1.86,1.96,2.41,3.11.55,1.15.83,2.3.83,3.46ZM327.83,34.67c-1.85,0-3.47.74-4.86,2.21-1.39,1.48-2.44,3.5-3.13,6.07,2.33-.36,4.21-.74,5.65-1.13s2.56-.83,3.35-1.3c.79-.47,1.33-.97,1.6-1.51.28-.54.41-1.12.41-1.75s-.24-1.21-.72-1.76c-.48-.55-1.25-.83-2.3-.83Z"/>
  <path class="cls-1" d="M375.78,36.83c0,1.7-.34,3.26-1.01,4.68-.67,1.42-1.84,2.67-3.51,3.76-1.67,1.09-3.91,2.02-6.73,2.79-2.82.77-6.37,1.37-10.64,1.8.05,2.54.61,4.4,1.67,5.58,1.07,1.18,2.65,1.76,4.73,1.76.98,0,1.84-.08,2.56-.25.72-.17,1.35-.38,1.89-.65s1.03-.54,1.46-.83c.43-.29.85-.56,1.24-.83.4-.26.81-.48,1.24-.65.43-.17.92-.25,1.48-.25.36,0,.71.09,1.04.27.34.18.64.41.9.7l2.88,3.35c-1.32,1.3-2.61,2.42-3.87,3.37-1.26.95-2.56,1.73-3.89,2.34s-2.75,1.06-4.25,1.35c-1.5.29-3.14.43-4.91.43-2.21,0-4.24-.38-6.08-1.13-1.85-.76-3.44-1.82-4.77-3.2-1.33-1.38-2.36-3.04-3.1-4.99-.73-1.94-1.1-4.1-1.1-6.48,0-1.99.22-3.94.67-5.83.44-1.9,1.08-3.68,1.91-5.35s1.84-3.2,3.04-4.61c1.2-1.4,2.55-2.61,4.05-3.62,1.5-1.01,3.14-1.79,4.93-2.36,1.79-.56,3.69-.85,5.71-.85s3.76.29,5.31.86c1.55.58,2.85,1.33,3.91,2.25,1.06.92,1.86,1.96,2.41,3.11.55,1.15.83,2.3.83,3.46ZM362.67,34.67c-1.85,0-3.47.74-4.86,2.21-1.39,1.48-2.44,3.5-3.13,6.07,2.33-.36,4.21-.74,5.65-1.13s2.56-.83,3.35-1.3c.79-.47,1.33-.97,1.6-1.51.28-.54.41-1.12.41-1.75s-.24-1.21-.72-1.76c-.48-.55-1.25-.83-2.3-.83Z"/>
</svg>